<?xml version="1.0" encoding="UTF-8"?>
<svg xmlns="http://www.w3.org/2000/svg" version="1.1" viewBox="0 0 200 200">
  <defs>
    <style>
      .cls-1 {
        fill: #105327;
      }
    </style>
  </defs>
  <!-- Generator: Adobe Illustrator 28.6.0, SVG Export Plug-In . SVG Version: 1.2.0 Build 709)  -->
  <g>
    <g id="Laag_1">
      <g>
        <polygon class="cls-1" points="119.57 76.15 101.41 94.71 82.85 108.92 75.35 125.51 70.61 141.7 76.54 138.54 85.62 121.56 95.88 104.58 113.65 90.37 123.52 84.84 126.29 77.34 122.73 58.38 119.57 76.15"/>
        <path class="cls-1" d="M173.73,40.5l-32.68-19.11-38.84-15.41-45.62,12.95-30.83,27.74L5.93,116.95l19.56,52.08,23.45,15.02,50.19,9.96,37.67-9.44,30.77-18.92,26.51-61.65-20.35-63.5ZM143.14,105.02l-9.64,29.46-19.28,18.75-27.85,3.75h-21.43l-6.44-.09-4.19-3.51-2.23-6.05-3.75-23.57,1.87-14.46,19.02-27.85,23.03-10.18,25.17-17.14,5.36-19.82,13.39,8.03,6.96,28.92v33.75Z"/>
      </g>
    </g>
  </g>
</svg>