<?xml version="1.0" encoding="UTF-8"?>
<svg xmlns="http://www.w3.org/2000/svg" version="1.1" viewBox="0 0 490.32 133.58">
  <defs>
    <style>
      .cls-1 {
        fill: #b8c68d;
      }

      .cls-2 {
        fill: #4d5632;
      }
    </style>
  </defs>
  <!-- Generator: Adobe Illustrator 28.6.0, SVG Export Plug-In . SVG Version: 1.2.0 Build 709)  -->
  <g>
    <g id="Laag_1">
      <polygon class="cls-2" points="0 85.41 42.66 91.43 35.63 128.78 76.34 133.58 123.72 127.58 169.47 120.25 224.61 114.59 260.97 121.45 298.04 117.33 332.92 133.58 397.33 123.48 433.27 123.48 464.98 119.03 480.1 87.96 472.29 49.47 454.55 30.54 445.05 9.8 409.11 20.02 382.82 25.16 367.54 25.16 320.27 9.8 299.24 25.16 251.53 20.62 238.92 30.54 224.61 15.21 210.12 22.21 195.19 29.64 159.97 33.46 144.37 21.82 118.11 20.62 102.75 31.37 82.74 13.41 35.63 20.02 8.41 17.01 0 31.37 0 85.41"/>
      <polygon class="cls-1" points="10.22 75.8 52.88 81.82 45.85 119.17 86.56 123.97 133.94 117.97 179.69 110.64 234.83 104.98 271.18 111.84 308.26 107.72 343.13 123.97 407.55 113.87 443.49 113.87 475.2 109.42 490.32 78.35 482.51 39.86 464.77 20.93 455.27 .19 419.33 10.41 393.04 15.55 377.76 15.55 330.49 .19 309.46 15.55 261.75 11.01 249.14 20.93 234.83 5.6 205.4 10.41 205.4 20.03 170.19 23.85 154.58 12.21 128.33 11.01 112.97 21.76 92.96 3.8 45.85 10.41 18.63 7.4 10.22 21.76 10.22 75.8"/>
      <g>
        <path class="cls-2" d="M68.13,113.61l-1.9.13-3.93-.13-.25-2.41v-2.53l3.8.13,2.03-.38,1.65.13.13-4.18-.13-1.77.51-.25.13-7.47-.13-2.28-.13-1.77v-2.28l.13-1.77-.13-2.03.13-2.03v-1.77l-.38-2.28v-2.15l-.51-3.8.13-1.77-.13-2.15-.25-1.77.13-2.41.13-1.65-.13-2.28-.25-1.9.89-3.67-.25-2.03.25-2.15-.13-4.05-.25-2.03.25-1.77-.38-2.03.13-2.28.13-1.77v-2.15l-.13-2.03-.89-.38.13-2.15v-1.77l-.13-2.28-2.13-.17-2.76.2-2.8-.08-3.6.17-7.16-.17-3.97.17-.13-2.28.13-2.03v-2.28l4.3.05,4.65.24,4.13-.13,1.63.15,6.31-.05h2.28l2.03.13,1.9.25.89-.63,1.9-.25,2.15.25,5.83.38,2.03.25,1.77.51,1.9.76,1.9.89,1.77,1.27,1.65.76,1.39,1.52,1.39,1.39,1.14,1.77,1.27,1.27,1.01,2.15.76,1.65.63,1.65.89,2.15.38,2.03,1.01,4.05.25,1.9.13,2.15.13,1.9v4.05l-.25,2.28.13,1.9-1.65,3.17-.25,2.03-.25,2.28-.76,1.9-.51,2.28-.76,1.9-.51,1.77-1.14,1.9.38.38-1.01,1.77-1.14,1.65-4.31,4.31-1.65,1.52-1.77.76-1.77,1.27-1.9.89-3.8.76-2.15.51-3.42.13-.25,2.15v9.88l.25,2.41-.25,3.93h2.03l2.15-.13,2.79.25-.13,2.41-7.22.51,8.99.13-.25,2.53h-4.31l-1.77-.13-2.15.25-2.03-.13h-2.28l-2.03.25-2.28-.25ZM70.41,111.21l-1.65.13-1.39-.13,1.77.63,1.27-.63ZM78.9,22.53l-6.59.76h4.81l7.47.63-5.7-1.39ZM73.83,44.95l-.13-1.27-1.01,1.01v1.52l1.14-1.27ZM73.83,38.75l-1.01-5.32v8.87l1.01-3.55ZM73.45,59.4l-.63-5.32v11.15l.63-5.83ZM73.83,90.81l-.38-1.52-.63,1.14.51.76.38,1.14.13-1.52ZM74.08,93.22l-.51-.25-.38,9.12.63,3.67.25-12.54ZM75.35,70.42l-.51-.25-.38,3.8.63,3.67.25-7.22ZM80.29,82.96l2.53-2.41,1.77-.51,1.52-.89,1.65-1.01,1.52-1.27.76.38,1.14-1.39.89-1.77.76-1.77.89-1.65.51-2.03.63-2.15.51-1.9.38-1.9.13-2.28.25-2.28.13-1.77-.13-3.67.13-3.93-.25-2.15-.13-1.77-.13-1.9-.25-2.03-.51-1.9-.63-2.15-1.01-1.65-.89-2.28-1.14-1.65-1.27-.25-3.29-2.28-1.77-1.27-1.77-.63h-1.9l-3.42-.51v2.41l-.25,1.9v4.05h.51l.13,2.41.13,1.77-.25,1.9-.76,4.18v3.17l-.13,2.41-.13,1.65-.13,2.15.13,2.15v2.03l-.13,1.9.13,2.03v2.03l-.25,2.15v2.28l.38.13-.13,2.03-.13,2.15.13,2.03-.25,2.28.13,2.03v1.9l.13,1.77,3.17-.25ZM85.74,86l-2.03-.25-5.83.89-.76.76,8.61-1.39ZM86.62,25.7l-.76-1.01-1.14-.63.38,1.01.38.63h1.14ZM90.42,81.69l2.53-2.66-5.7,3.93,3.17-1.27ZM94.23,77.13l-.89.25.76.76.13-1.01ZM99.8,42.29l-.25-3.04-1.27-2.53.76,3.04.25,4.81.51-2.28ZM99.8,60.41l-.25-1.27-.51,1.01-.13.63.76.89.13-1.27ZM102.59,50.53l-1.27-6.84.51,6.97.13,6.84.63-6.97Z"/>
        <path class="cls-2" d="M110.69,105.51v-1.69l3.8-.11,2.03-.32,1.9-.11-.13-3.06v-1.9l-.13-1.79.13-1.79v-1.58l-.13-1.48-.13-1.9.25-1.48-.25-1.9.13-1.69.51-.53.13-1.69-.25-2,.13-1.48-.25-2,.13-1.48v-3.58l-.63-2.42-.38-1.69.13-1.69v-3.48l-.25-1.9.51-.42-.13-1.9v-1.58l.13-2-.25-1.69.13-1.69v-1.58l-.13-1.69-.13-1.48-.38-2.85.13-2-.13-3.27h-2.28l-2.15.42-4.43.21-.25-1.69v-2.11l.13-1.58,5.83-.32,2.15.11,1.77-.11,2.03.21,2.03-.11,2.03.21h2.15l-.13,3.16v3.58l.13,1.58-.13,1.58v1.9l-.25,1.48.51.42.13,1.58-.13,1.69.13,1.79v1.69l-.25,1.58.13,1.69v1.9l-.25,1.37.13,1.9-.51,3.27v4.95l-.25,1.79-.51.63v1.48l-.25,1.58.13,1.9v1.58l.13,1.69.63,2.74-.25,1.79.13,1.58-.51,2.95v1.58l.13,1.9-.25,1.69v1.48l.38.63.13,1.58-.13,1.89,4.15.95,15.8.32,3.55.11v3.06l-.13,1.48-24,.32-1.9-.11-1.9.11-1.9-.32-2.03.32h-5.95l-.13-2.21ZM121.59,78.63l-.76-2.42-.38,2.11.89,2.95.25-2.64ZM122.22,37.62l-.76-1.05-.76,1.48.89,1.9.63-2.32ZM122.47,103.19l-1.52-.74.89,2.53.63-1.79ZM122.09,54.28l-1.01-.42v3.9l.51.63.38,2.21.13-6.32ZM121.97,91.49l.25-4.43-1.01-.42-.13,2.53.25,6.11.63-3.79ZM122.35,50.59l-1.14-1.16v2l1.14-.84Z"/>
        <path class="cls-2" d="M139.89,91.57l-2.03-.13-3.55-2.03-1.65-1.27-1.14-1.39-1.01-1.77-1.14-3.17-.51-1.65.25-4.31.25-1.77.51-2.03,1.01-1.77,1.39-.38,1.77-1.65,1.77-.89,1.65-1.01,2.03-.89h2.15l1.9-.63,2.03.13,2.03.63,2.28.13,3.55,1.65,1.9-.38.25-2.28.38-1.9-.13-2.03.25-2.28.51-2.03.38-3.8v-2.28l.13-1.9.13-2.15-.13-2.28.13-1.9-.51-2.03-.51-3.55-.63-2.28-1.27-1.65-1.27.38-3.55.25-1.77.89-1.52,1.39-.89,1.65-1.14,1.77-1.01.38-.63,1.77-.51,2.28-.63,1.77-.51,2.03-.25,2.41-.51,5.32h-5.32l-.25-4.18v-1.65l-.38-2.03-.25-2.03v-2.28l-1.14-3.93-.25-4.05.63-.13-.51-5.51.13-2.28-.38-3.93,1.9-.13,2.41-.38,2.15.25.25,3.8.13,2.41.13,5.51.76.13.89-1.52,1.27-2.03,1.14-1.27,1.27-1.52,1.77-.76,1.9-1.14,1.77-.38,3.67-.13,3.42,1.14,1.52,1.14,1.39,1.65,1.27,1.27.89,1.9.63,1.65.51,2.28.51,2.03.51,1.77.13,2.28-.63.63-.38,2.28v4.18l-.38,4.05-.38,2.41.63,3.17-.25,1.9-.25,2.15-.38,2.28-.63,3.67-.25,2.15v1.77l-.25,1.9-.13,2.41v1.65l.13,2.03.63,1.9,3.67.25,1.27-1.65.51-1.52.63-3.04,2.03.38,1.65,1.65-.63,3.55-1.01,1.65-1.01,2.03-1.27,1.77-1.39,1.52-1.9.89h-4.31l-2.79-2.03-1.14-2.03-1.01-3.93-1.39,2.15-1.14,1.39-2.91,3.17-2.03,1.01-1.65.51-2.15.51-4.18-.13ZM135.2,72.95l3.29-4.18-1.39.13-2.66,3.55-.51,5.7,1.27-5.19ZM145.08,86l1.9-.63,1.52-.76,1.52-1.52,1.52-1.77,1.14-1.77.89-1.65,1.01-4.56-1.52-.76-2.03-.89-1.65-.51-2.28-.38-1.9.25-1.9.13-1.9.38-1.77,1.14-1.52,1.01-.89,2.03-.63,1.52.13,4.43.89,1.65,1.27,1.77,1.77,1.01,4.43-.13ZM137.48,35.07l-.63-1.9.25,4.56.38-2.66ZM138.62,41.91l-.25-1.9-1.01,2.91,1.27-1.01ZM142.8,88.02l-1.65-.76-1.52,2.15,3.17-1.39ZM148.38,30.89l2.15-1.52-5.83,2.53-1.77,3.04,5.45-4.05ZM150.53,67.76l-1.9.25,5.57,1.52-3.67-1.77ZM159.4,69.78l-1.01-3.04v4.43l-.89,7.35,1.9-8.74ZM160.41,60.79l-.51-1.14-1.14,2.79,1.65-1.65ZM161.3,44.57l-.13-2.91-1.01,4.81-.25,8.49,1.39-10.39ZM165.35,85.87l-2.53.38-2.28-1.14,1.01,2.03,3.8-1.27Z"/>
        <path class="cls-2" d="M172.6,96.12l-.13-1.75v-2.02l3.93-.13,1.65-.27h2.03l.13-4.44v-1.75l-.38-2.42.25-2.02-.25-2.15-.13-2.56.25-1.88-.13-2.42-.25-1.88.51-3.77.13-1.75-.13-2.69v-1.75l-.13-2.15v-2.56l-.13-1.88v-6.73l-.51-.67-.13-2.29.13-2.15v-4.04l-2.41-.27-2.28.13h-4.05l-.38-2.02.25-2.29-.25-2.69,4.18-.13,3.67.27,2.03-.13,2.15.13,1.77-.13,2.28.27,1.65.27.13,3.77v1.75l-.25,4.04.76.4,1.01-2.29.89-1.75,1.27-2.02,1.14-1.48,1.39-1.75,1.65-1.35,2.03-.67h3.67l1.77.54,1.65.54,1.52,1.21,1.14,1.75,1.01,1.62.76,1.88.63,2.15.76,2.02-.25.81.13,2.29.51,2.29.38,2.15.13,2.02.38,2.29-.13,1.88.13,2.15.38,2.15.76,3.63v1.75l.38,2.29-.89,3.63.13,2.15v2.02l.13,2.42-.13,2.02.51.81.13,2.42-.13,1.88v6.73h1.77l1.77-.27h3.8v2.42l-.25,2.42v1.88l-4.05.13h-2.03l-1.77-.13h-2.03l-2.03.13-2.03-.13-2.15.4h-2.15l-3.67-.4-.25-1.62v-4.58h3.67l1.77.27,1.77-.4.25-3.9v-2.15l.13-2.15-.13-2.56-.13-1.62.13-2.15v-8.48l.13-1.88v-2.29l-.13-1.88-.38-2.56.13-1.75-.38-2.42.13-2.15-.13-2.02-.51-2.02-.25-2.02-.63-.54-.25-2.15-.76-1.75-.51-2.42-1.27-1.62-3.42-.4-1.14,1.48-1.52,1.21-.76,1.62-1.27,1.88-.76.4-.51,1.88-.76,2.02-.63,2.42-.63,1.75-1.01,5.65-.51,1.88-.51,2.15-.13,2.42.38.67-.38,2.42-.76,3.63-.13,4.44-.13,1.62-.13,2.42.13,2.02.38.94v1.62l.13,2.42v4.04l1.9.13h3.93l.13,1.75.25,2.29-.38,2.42-3.8-.27-2.28.27-1.77-.13-2.41-.13-2.03.13h-1.9l-2.03-.13-3.93.27v-2.29ZM175.38,33.8l-2.91.54,7.22.13-4.31-.67ZM189.7,95.32l-.13-1.21-7.09,1.35,7.22-.13ZM184.38,42.42l-.89-4.71v4.71l.38,2.96.51-2.96ZM185.14,63.01l-1.01-.81-.13,6.06,1.14-5.25ZM185.64,54.26l-1.01-.54.38,3.77.63-3.23ZM196.79,36.09l-1.39-1.08-.89,2.42,2.28-1.35ZM206.29,37.3l-.89.4,1.01,1.48-.13-1.88ZM208.7,49.95l-.89-2.83,1.01,9.96-.13-7.13ZM209.2,89.53h-.51l.38,3.77.13-3.77ZM210.22,70.82l-1.01,1.35,2.28.4-1.27-1.75ZM209.84,83.07l.25-3.23-.51-2.56-.38,2.29.38,5.38.25-1.88Z"/>
        <path class="cls-2" d="M231.03,81.42l-2.03-.2-1.77-.69.13-.79-1.27-1.09-.63-1.39-.89-1.88-.51-1.59.38-.5-.25-1.59-.13-1.78-.25-1.68-.25-1.59.13-1.39v-3.57l-.76-2.28-.13-1.59-.13-1.98.13-1.49.63-2.78v-1.78l-.13-1.68.25-1.68v-1.49l-.13-1.59.13-1.68v-1.69l-.76-.3.13-3.07h-2.28l-1.9-.1h-3.93l-.13-1.98.13-1.88,3.8-.1,2.15.3,2.03-.1.13-8.76v-3.07l.13-3.17,1.65-.1h5.57l1.9.2.13,2.97-.38,1.39v9.95l1.77.2,2.15-.4,1.65.3,3.8-.2v1.59l.13,1.59-.25,1.59-3.67.2h-2.03l-1.9-.1h-2.15l.13,2.87v1.59l-.38,1.69v1.39l-.13,1.59-.38,3.57v1.68l.13,1.49-.25,1.59v1.39l-.25,1.49.25,1.59-.38,1.69.51.89-.25,3.37v2.97l.25,1.29v1.78l.13,1.29.76,1.78.38,1.49,1.52.89,4.18-.3,1.52-.89.25-.69,1.14-2.97,2.03.5,1.9.5-1.01,3.17-.89,1.49-1.14,1.59-1.27,1.09-1.39,1.29-1.9.79-5.83-.4ZM225.83,23l.76-2.18-1.01-.79-.38,2.38.38,1.98.25-1.39ZM227.48,65.96l.13-4.46-.25-.79-.38,4.56.25,2.48.51.79-.25-2.58ZM228.11,69.43l-1.14.3,1.01.2.13-.5ZM228.75,50.69l-1.01-.59.51,1.78.51-1.19ZM228.49,43.56l.38-3.77-.51-.59-.38,2.38-.13,4.06.38.5.25-2.58ZM229.25,35.93l-1.14-.59v.79l1.14-.2ZM234.83,78.45l-.13-.3h-3.17l-1.27-.1,2.79.59,1.77-.2ZM233.94,33.84l-.38-.4-2.66.3,2.28.3.76-.2ZM241.67,74.88l-.38-.3-.13,1.78.51-1.49Z"/>
        <path class="cls-2" d="M258.14,98.64l-.25-.67-1.77-.89-1.39-1.23-1.27-1.34-1.27-1.89-.89-1.34-2.15-1.78-.51-1.78-.76-1.56-.25-2.23-.38-1.78-.38-1.67-.38-2.01v-1.56l-.38-1.78.51-.89.13-3.57v-3.79l.13-1.45.13-1.89v-3.23l.13-1.45.51-2.12.25-1.67.63-1.67.76-1.56.38-2.01,1.01-1.45,1.14-1.45,1.39-1.34,1.14-1.45,3.42-1.89,2.03-.22,4.05-.22,1.01-.56,3.42,2.23,2.15,2.34,1.27,1.34.76,1.45,1.01,1.78.51,1.67v2.79l.63,2.01.25,1.67.25,1.89.13,1.78.38.67-.25,3.57-2.03.33-2.03-.22-1.9.22h-2.03l-3.8-.11-1.77.11-2.28.33-1.9-.11-4.05-.11.25,2.01-.25,4.01.25,1.56-.13,1.78.25,2.01.13,1.78.63,1.67.25,1.45.38,2.01.51.33.76,1.78,1.14,1.45,1.39,2.56,1.39,1h4.31l1.39-.89,1.27-1.45,1.01-1.45.63-2.12.25-3.79,2.66.22,2.41.22-.38,3.46-.38,1.78-.63,1.89-.76,1.45-.76,1.89-.89,1.67-1.27,1.11-1.52,1.45-3.8,1.23-3.8.11-2.15-.45ZM250.92,64.09l-.63-.67-1.14,2.9,1.77-2.23ZM252.31,82.48l-1.65-3.57.63,2.9,2.03,6.24-1.01-5.57ZM253.7,52.16l.63-1.89-1.65,2.9-1.9,5.24,2.91-6.24ZM254.72,89.5l-2.41-.56.63,1.23,1.14.33.63-1ZM254.21,49.37l-1.01-1.11-.38,2.68,1.39-1.56ZM260.42,63.2l2.28-.22,1.9-.22,4.05.11.13-1.89.13-1.78-.38-1.56-.13-1.78-.25-1.78-1.52-2.56-.63-1.56-1.14-1.56-1.01.22-3.67-.11-1.65,1.34-.89,1.34-1.01.45-.89,1.78-.51,1.67-.51,1.56-.25,1.89-.38,3.12-.13,1.45,4.31.22,2.15-.11ZM264.09,95.74l-3.8-.22-3.55-1.34,3.42,1.89,3.93-.33ZM261.68,45.03l-3.17.45,3.93.45,2.53.45-3.29-1.34ZM272.45,59.07l-1.27-3.68.25,3.01,1.39,6.35-.38-5.68Z"/>
        <path class="cls-2" d="M279.61,87.62l-.13-1.65v-1.9l3.93-.13,1.65-.25h2.03l.13-4.18v-1.65l-.38-2.28.25-1.9-.25-2.03-.13-2.41.25-1.77-.13-2.28-.25-1.77.51-3.55.13-1.65-.13-2.53v-1.65l-.13-2.03v-2.41l-.13-1.77v-6.33l-.51-.63-.13-2.15.13-2.03v-3.8l-2.41-.25-2.28.13h-24.7l-.38-1.9.25-2.15-.25-2.53,24.83-.13,3.67.25,2.03-.13,2.15.13,1.77-.13,2.28.25,1.65.25.13,3.55v1.65l-.25,3.8.76.38,1.01-2.15.89-1.65,1.27-1.9,1.14-1.39,1.39-1.65,1.65-1.27,2.03-.63h3.67l1.77.51,1.65.51,1.52,1.14,1.14,1.65,1.01,1.52.76,1.77.63,2.03.76,1.9-.25.76.13,2.15.51,2.15.38,2.03.13,1.9.38,2.15-.13,1.77.13,2.03.38,2.03.76,3.42v1.65l.38,2.15-.89,3.42.13,2.03v1.9l.13,2.28-.13,1.9.51.76.13,2.28-.13,1.77v6.33h1.77l1.77-.25h3.8v2.28l-.25,2.28v1.77l-4.05.13h-2.03l-1.77-.13h-2.03l-2.03.13-2.03-.13-2.15.38h-2.15l-3.67-.38-.25-1.52v-4.31h3.67l1.77.25,1.77-.38.25-3.67v-2.03l.13-2.03-.13-2.41-.13-1.52.13-2.03v-7.98l.13-1.77v-2.15l-.13-1.77-.38-2.41.13-1.65-.38-2.28.13-2.03-.13-1.9-.51-1.9-.25-1.9-.63-.51-.25-2.03-.76-1.65-.51-2.28-1.27-1.52-3.42-.38-1.14,1.39-1.52,1.14-.76,1.52-1.27,1.77-.76.38-.51,1.77-.76,1.9-.63,2.28-.63,1.65-1.01,5.32-.51,1.77-.51,2.03-.13,2.28.38.63-.38,2.28-.76,3.42-.13,4.18-.13,1.52-.13,2.28.13,1.9.38.89v1.52l.13,2.28v3.8l1.9.13h3.93l.13,1.65.25,2.15-.38,2.28-3.8-.25-2.28.25-1.77-.13-2.41-.13-2.03.13h-1.9l-2.03-.13-3.93.25v-2.15ZM282.39,28.97l-22.82.51,27.13.13-4.31-.63ZM296.71,86.86l-.13-1.14-7.09,1.27,7.22-.13ZM291.39,37.07l-.89-4.43v4.43l.38,2.79.51-2.79ZM292.15,56.45l-1.01-.76-.13,5.7,1.14-4.94ZM292.66,48.22l-1.01-.51.38,3.55.63-3.04ZM303.8,31.12l-1.39-1.01-.89,2.28,2.28-1.27ZM313.3,32.26l-.89.38,1.01,1.39-.13-1.77ZM315.71,44.17l-.89-2.66,1.01,9.37-.13-6.71ZM316.22,81.41h-.51l.38,3.55.13-3.55ZM317.23,63.8l-1.01,1.27,2.28.38-1.27-1.65ZM316.85,75.33l.25-3.04-.51-2.41-.38,2.15.38,5.07.25-1.77Z"/>
        <path class="cls-2" d="M319.16,104.35l-.13-1.9.13-1.9v-2.03l15.49.13,1.9.13.63-6.33-.13-1.65-.13-2.28v-4.31l.13-1.65-.89-.25.13-1.9-.13-4.31-.13-1.77-.13-4.31.13-2.03.76-3.29v-4.18l-.25-2.28.25-1.9-.38-2.28.25-1.9-.25-1.77.13-2.41v-1.65l-.25-2.53-.63-.38-.13-2.03v-1.77l-.13-6.46v-3.93l.13-3.55,2.53-.89.25,2.79.89-4.69-6.08.25-1.65.38-1.9-.13-2.79-.13-.13-4.43,5.45-.25-6.46-.76.25-2.15,3.42-.13h1.9l2.15.38,2.03-.13,1.9.13,1.9-.25,1.77.25h6.08l3.93.51,1.9.89,1.9.76,1.65,1.14,1.65,1.01-.38.51,1.14,1.77,1.39,1.27,1.14,1.77,1.14,2.03.63,1.77.76,1.9,2.53,2.66.63,2.15.25,2.03.13,2.03.25,2.15v4.05l-.13,1.9-.25,2.03v2.15l-.51.25-.63,2.03-.51,1.52-.63,2.28-.38,1.52-1.14,2.03-.76,1.52-1.14,1.9-.89,3.42-1.39,1.27-1.39,1.77-1.65.89-1.77.89-1.65.89-1.77.89-.13.38,2.03.76,1.9.38,1.9.13,1.9,1.01,1.77.63,1.77,1.01,1.65,1.14,1.27,1.77,1.27,1.14.63,2.15.51,1.9v3.8l-.38,2.15-1.01,1.52-1.27,1.65-1.27,1.77-1.65,1.27-1.77,1.14.38.63-1.9.89-2.15.51-1.9.25-2.15.38-6.84.38-.38-.38h-1.9l-1.77-.13-7.73.76-2.03.13-12.7-.25ZM336.55,101.94l-1.65.13-1.39-.13,1.77.63,1.27-.63ZM345.03,18.59l-6.59.76h4.81l7.47.63-5.7-1.39ZM339.97,41.01l-.13-1.27-1.01,1.01v1.52l1.14-1.27ZM339.97,34.8l-1.01-5.32v8.87l1.01-3.55ZM339.59,55.45l-.63-5.32v11.15l.63-5.83ZM339.97,86.87l-.38-1.52-.63,1.14.51.76.38,1.14.13-1.52ZM340.22,89.27l-.51-.25-.38,3.8.63,3.67.25-7.22ZM341.49,66.47l-.51-.25-.38,3.8.63,3.67.25-7.22ZM345.92,73.19l2.03-.89,1.65-1.01,1.39-1.27,1.27-1.39,1.52-1.77.76-2.15,1.14-1.65.51-2.03.89-1.9,1.14-2.15.25-1.9.38-2.28.38-2.15.13-2.03v-2.03l.13-4.43-.13-2.15-.13-2.03-1.14-2.03-.63-2.03-.63-1.77-.63-2.03-1.27-1.9-1.14-1.77-1.52-1.01-1.77-1.39-1.9-.51-4.43-.63.25,1.9.13,1.77v2.15h-.89l-.25,1.9v4.56l-.13,1.9.13,2.03v4.05l-.25,2.03.25,2.15-.13,1.65.89,4.18.13,2.28-.13,1.65v2.28l.13,2.03-.25,2.15v1.9l-.13,2.03.25,2.03v4.81l1.77-1.14ZM345.79,98.52h2.15l2.03-.25,1.9-.51,2.03-.51,2.03-1.01,1.77-1.27,1.01-1.27,1.14-1.9-.25-4.31-.51-1.65-1.01-1.52-.51-1.52-1.52-1.14-1.65-1.01-1.77-.63-2.91-.76-1.77-.38-2.15-.13h-1.77l-.25,4.05.13,2.03.13,1.9-.38,3.67.13,2.28.13,1.77-.13,4.56,2.03-.51ZM352.51,77.62l-5.83-1.27-1.01.51,8.61,1.65-1.77-.89ZM352.76,21.76l-.76-1.01-1.14-.63.38,1.01.38.63h1.14ZM359.6,66.09l.89-3.55-2.91,6.21,2.03-2.66ZM363.4,90.29l-.25-3.04-1.27-2.53.76,3.04.25,4.81.51-2.28ZM362.77,93.83l-.89.25.76.76.13-1.01ZM363.66,41.52l-1.27-6.84.51,6.97.13,6.84.63-6.97ZM363.4,50.13l-.25-1.27-.51,1.01-.13.63.76.89.13-1.27Z"/>
        <path class="cls-2" d="M378.52,110.38l-4.18.13v-1.65l.13-1.9.25-1.77h6.59l-.13-3.93.76-3.93v-2.03l-.13-1.9v-2.03l-.13-1.9-.38-.38-.13-1.9.13-1.77-.25-2.41v-1.9l.25-1.9-.38-2.15.13-1.9.63-.63.13-1.52-.25-2.28v-1.77l-.13-2.41.13-2.03v-1.65l-.13-2.15-.38-3.8.63-3.8h-2.53l-2.15.13-3.93-.13.13-1.77v-2.41l.25-1.65h4.05l3.8.38,2.15.38,1.77-.25,2.15-.13.51-.76,2.15.25,2.15-.25,3.8.38.25,1.65.13,1.65-.13,1.9-5.83.13-1.77-.13-.13,4.43v2.15l-.13,1.9v1.77l.25,2.03v4.05l-.25,2.15-.51.63.13,1.77v1.9l-.13,2.28-.13,1.77-.13,2.03v2.03l.89,3.42-.25,2.15.13,1.9.13,2.28-.25,1.77.13,2.28v3.67l.13,4.18h6.08l.25,1.9-.25,1.52v2.15l-3.93-.38-2.15.25-1.9.13h-1.9l-2.03-.25-2.15.25-2.03-.25ZM379.4,49.7l-1.65-.38.63,1.39,1.01-1.01ZM384.98,67.31l-1.27-4.05.38,12.54.89-8.49ZM385.23,89.23l-1.27-.89-.13.89.38,1.27,1.01-1.27ZM385.61,96.7l-1.27-5.07.76,12.29.51-7.22ZM384.98,104.81l-.13.38-.51.76.89.76-.25-1.9ZM392.07,49.2l-7.09.76,9.37.38-2.28-1.14Z"/>
        <path class="cls-2" d="M413.37,91.38l-.25-.76-1.77-1.01-1.39-1.39-1.27-1.52-1.27-2.15-.89-1.52-2.15-2.03-.51-2.03-.76-1.77-.25-2.53-.38-2.03-.38-1.9-.38-2.28v-1.77l-.38-2.03.51-1.01.13-4.05v-4.31l.13-1.65.13-2.15v-3.67l.13-1.65.51-2.41.25-1.9.63-1.9.76-1.77.38-2.28,1.01-1.65,1.14-1.65,1.39-1.52,1.14-1.65,3.42-2.15,2.03-.25,4.05-.25,1.01-.63,3.42,2.53,2.15,2.66,1.27,1.52.76,1.65,1.01,2.03.51,1.9v3.17l.63,2.28.25,1.9.25,2.15.13,2.03.38.76-.25,4.05-2.03.38-2.03-.25-1.9.25h-2.03l-3.8-.13-1.77.13-2.28.38-1.9-.13-4.05-.13.25,2.28-.25,4.56.25,1.77-.13,2.03.25,2.28.13,2.03.63,1.9.25,1.65.38,2.28.51.38.76,2.03,1.14,1.65,1.39,2.91,1.39,1.14h4.31l1.39-1.01,1.27-1.65,1.01-1.65.63-2.41.25-4.31,2.66.25,2.41.25-.38,3.93-.38,2.03-.63,2.15-.76,1.65-.76,2.15-.89,1.9-1.27,1.27-1.52,1.65-3.8,1.39-3.8.13-2.15-.51ZM406.15,52.11l-.63-.76-1.14,3.29,1.77-2.53ZM407.55,73.01l-1.65-4.05.63,3.29,2.03,7.09-1.01-6.33ZM408.94,38.56l.63-2.15-1.65,3.29-1.9,5.95,2.91-7.09ZM409.95,80.99l-2.41-.63.63,1.39,1.14.38.63-1.14ZM409.45,35.39l-1.01-1.27-.38,3.04,1.39-1.77ZM415.65,51.1l2.28-.25,1.9-.25,4.05.13.13-2.15.13-2.03-.38-1.77-.13-2.03-.25-2.03-1.52-2.91-.63-1.77-1.14-1.77-1.01.25-3.67-.13-1.65,1.52-.89,1.52-1.01.51-.89,2.03-.51,1.9-.51,1.77-.25,2.15-.38,3.55-.13,1.65,4.31.25,2.15-.13ZM419.33,88.09l-3.8-.25-3.55-1.52,3.42,2.15,3.93-.38ZM416.92,30.45l-3.17.51,3.93.51,2.53.51-3.29-1.52ZM427.69,46.41l-1.27-4.18.25,3.42,1.39,7.22-.38-6.46Z"/>
        <path class="cls-2" d="M433.61,104.48l-.13-1.52v-1.9l.13-2.03,3.42-.13,1.65.13,1.77-.63-.13-3.55.13-2.15v.57l-.25-2.03.13-2.41-.25-2.03-.13-1.65v-2.15l.13-2.15-.25-2.03.13-2.15-.25-1.65.13-2.03-.13-4.31-.13-2.03.13-2.15-.13-1.65-.25-2.28,1.01-3.67-.38-2.03.13-1.9-.25-2.15v-2.15l.13-1.77-.25-2.03.25-2.15-.13-2.03-1.01-.51-.13-1.9.13-1.9-.13-4.31v-1.77l-.25-1.9.13-4.18-2.28-.13-6.59.38v-6.21l3.8.13,1.27.63,2.03.13,2.03-.25,2.28-.63,2.15-.25,3.8.25-.13,4.18.13,1.52v2.28l-.63.89-.13,1.9.13,2.28-.25,1.77v4.05l.63,3.29v10.01l.38,1.14,1.65-3.42,1.01-1.39,1.52-1.77,1.77-1.39,1.77-.76,4.05-.51,1.77.63,1.39,1.01,1.39,1.14,1.27,1.39,1.39,1.9.89,1.39.89,1.9.63,1.77.63,2.15.51,1.9.38,1.9.63,2.28.25,1.77.25,2.53-.51,3.17v4.31l.13,1.9-.13,2.41-.13,4.18.13,2.03.51.51v1.9l-.38,2.28-.51,1.77-.51,1.9-.38-.06-.76,1.9-.76,2.03-.89,1.9-1.14,1.39-1.27,2.03-3.42,1.9-1.9.63-3.93.13-3.55-1.52-1.65-1.77-1.39-1.52-2.41-3.17.25,1.65v6.46l-2.03.25h-2.03l-1.52.25-2.03-.38-1.77.38-3.67-.38ZM441.84,23.85l-.38,1.9.51,2.28,1.52,2.28-1.65-6.46ZM443.87,96.75l-.38-2.03-.63,1.39v3.17l1.01-2.53ZM444,85.41l-1.01-2.91.13,3.29.63,4.31.25-4.69ZM444.25,39.17l-.38-3.04-.76,4.94v8.36l1.14-10.26ZM444.76,58.43l-1.39-1.39.13,4.69,1.27-3.29ZM457.93,98.52l1.39-1.01,1.01-.25.89-1.9.48-.85.91-.73.25-2.15.51-2.15.13-3.8.13-2.15.13-2.03.13-2.15v-4.31l-.25-2.15.13-2.03v-2.03l-.51-1.9v-2.15l-.13-2.15.51-1.39-.38-1.65-.89-2.41-.51-1.52-1.01-2.28-1.14-1.27-1.52-1.27-4.69-.89-1.39,1.39-1.27,1.77-.89,1.77-.63,1.77-.89,2.41-.38,1.77.51,1.27-.38,2.03v2.28l-.25,1.77-1.01,5.95-.25,2.03.13,2.15v1.9l.13,5.57.13,1.65.63,2.28.25,2.15.51,1.9,1.03.57.63.63,1.14,1.39,1.13.89,1.9,1.27h3.67ZM466.42,93.52l.89-10.51-3.04,13.36,2.15-2.85ZM466.54,56.02l-1.77-2.91,1.14,6.46.63-3.55Z"/>
      </g>
      <g>
        <path class="cls-2" d="M27.38,68.25h-1.04l-.85.07h-2.15l.26-.98v-1.11h1.95l1.04-.2.13-1.63h.26v-.98l.07-1.17v-1.04l-.13-1.11.13-.91-.13-1.11-.39-2.02.13-1.17-.13-1.04.13-1.11-.2-.91.07-1.17.46-2.86.13-.98v-1.24l-.07-.85v-1.24l-.13-.98v-1.11l.13-1.04v-1.11l-.13-.98v-1.11l-.46-.13v-.85l-.13-1.04.13-1.17-.13-1.11.07-.91v-1.17l-.13-1.04.13-1.04v-.98l-.07-2.28-1.11.2-2.8.2-.07-1.63,1.3-.2-1.95-.26-.13-1.04,2.28.07h.98l1.11-.07.98.13h.91l1.04-.2,2.15.13.91.2,1.04.13.91.07,1.11.52.85.33.85.46.91.52.78.59.39.78.59.85.59.78.46,1.11.59.78.26.98.46,1.11.59,1.04.2,1.04.26.98.2,1.11v1.24l.2.98v1.17l.07.91.13,1.3-.07,1.95v1.24l.07,1.11.33.26-.13,1.17.07.85-.13,1.3-.07.91-.2.98-.2,1.17-.13.98-.2,1.04-.85,1.63-.2,1.24-.26.85-.46,1.04-.39,1.04-.52.91-.33.91-.72.85-.65.91-.59.85-.85.65-1.63,1.37v.46l-.91.33-1.04.39-.98.2h-.98l-2.99.13-.98-.2ZM26.67,67.08l-.85.13,1.82.2,1.24.07-2.21-.39ZM31.22,66.3l.78-.2.91-.13.85-.52.72-.52.78-.65.52-.52.65-.85,1.3-2.67.39-.91.46-.98.26-1.17.39-1.04.2-1.11.2-.91.2-1.11-.33-.46.26-1.11.07-1.04v-1.04l.07-1.24.07-1.11.13-.98-.13-1.11.07-2.34.26-2.02-.07-.91-.07-1.04v-.98l-.2-1.11-.07-1.11-.52-.07-.2-1.11-.26-1.04-.39-.91-.65-.98-.2-.98-.52-.98-.65-.78-1.37-1.37-.98-.78-.98-.39-.85-.2-1.11-.13h-3.77l.59,6.76.26-6.24,1.63.33-.13,1.24.13.85-.07,1.04-.07,1.3v1.04l-.07,1.04v1.04l.07.85-.07,1.04.07,1.17-.07.91v1.17l-.13,1.11.13.91-.13,1.17.13.91-.07,1.11-.07,1.17.07.98-.13,1.11.07.91.33.2v1.95l.07,1.17v.91l-.07,1.17-.52,2.08v6.18l-.13,1.17-.07,2.8,1.04.2.98-.2ZM28.16,57.39l.07-3.06-.39,1.76-.07,3.25.39-1.95ZM28.55,37.68l-.39.46.07,1.89.33-2.34ZM28.68,53.42l-.26-.52-.2.85.07.59.39-.91ZM38.63,28.77l-2.6-2.54,1.89,2.47,1.37,1.56-.65-1.5ZM37.4,63.63l.13-.72-.72.65-.07.91.65-.85ZM40.06,31.9l-.52-1.11-.07,1.11.46,1.11.13-1.11ZM41.88,49.07l.07-3.97-.39,4.03-.13,2.99.46-3.06Z"/>
        <path class="cls-2" d="M51.64,68.06l-1.69-1.04-.72-.72-.46-.85-.65-.98-.33-1.04-.52-.98-.2-.98-.33-1.04-.2-.85-.13-1.24-.2-.98-.13-1.11.26-1.82-.13-1.24v-3.12l.13-.85-.07-1.04-.2-.13.07-.98v-1.11l.26-1.17.07-.98.33-1.11.59-1.17.33-.91.33-.98.46-.98.46-.91.26-.72.72-.65.72-.85.91-.39,1.11-.26h1.89l.98.26.91.52.72.72.72.78.46.72.39-.07.39.91.26.98.26,1.04.2.98.07.98.07,2.21v2.15l-.13,1.04-2.02.07-.98-.13-.98.2-.98-.13-.98.13h-1.11l-.91.07-3.06.07v.85l-.13.85.07,1.17v1.95l-.13,1.76v.98l.07,1.04.07.98.13,1.11.33.2.39.98.13.98.46,1.17.39.91.59.78.65.98.85.52h1.89l.91-.59.65-.59.52-.91.52-.78.2-1.11.39-.85.13-2.08h1.04l.91.07-.33,2.15-.07,1.17-.33.98-.46.91-.39,1.04-.52.85-.52.72-.78.85-.91.39-.78.52h-2.08l-1.04-.26ZM48.06,45.29l-.07-1.11-.39,1.82-.13,3.19.59-3.9ZM51.12,46.66h1.04l1.17-.07,2.15-.26,2.02-.07.07-.91-.13-1.04.2-.52-.13-.98-.2-1.04-.39-1.04-.85-1.56-.59-.78-.78-.59-2.02.07-.78.33-.72.85-.46.85-.52.91-.26.98-.26,1.04-.33.91-.13.98-.2,1.11v1.04l2.08-.2ZM55.09,67.21l-1.95-.13-1.82-.78,1.76,1.11,2.02-.2ZM54.5,36.06l-1.63.26,2.02.26,1.3.26-1.69-.78ZM58.99,43.08l-.39-2.21-.07,1.76.39,3.71.07-3.25Z"/>
      </g>
      <path class="cls-2" d="M391.97,26.55l-2.04-1.23-.82,3.02-3.84,2.61-3.51,1.55-2.9,4.25-.29,2.21.57,3.59.34.92.64.54h.98s3.27.01,3.27.01l4.25-.57,2.94-2.86,1.47-4.49v-5.15l-1.06-4.41ZM390.05,33.03l-1.51.84-2.71,2.17-1.57,2.59-1.38,2.59-.9.48.72-2.47,1.14-2.53,2.83-2.17,2.77-2.83.48-2.71.54,2.89-.42,1.14Z"/>
    </g>
  </g>
</svg>