<?xml version="1.0" encoding="UTF-8"?>
<svg xmlns="http://www.w3.org/2000/svg" version="1.1" viewBox="0 0 100 100">
  <defs>
    <style>
      .cls-1 {
        fill: #74804f;
      }
    </style>
  </defs>
  <!-- Generator: Adobe Illustrator 28.6.0, SVG Export Plug-In . SVG Version: 1.2.0 Build 709)  -->
  <g>
    <g id="Laag_1">
      <path class="cls-1" d="M91.78,28.18l-10.16-17.37L47.87,0,15.1,14.09,5.04,30.44.03,50.46l5.3,26.68,7.98,12.46,27.68,10.4,37.36-10.54,14.75-16.38,6.88-24.25-8.19-20.64ZM77.16,78.28l-18.54.6-.71-11.5-2.72-12.34-3.04-.8-2.98-.57-2.13.99-2.23.71-1.59,5.74-1.26,18.31-2.87.09-19.34-1.23-1.44-14.61.72-23.25,6.39-5.83.69-16.97,10.77-2.41,1.15,7.89,10.13-9.23,8.41,3.76,25.13,22.58-4.53,38.07Z"/>
    </g>
  </g>
</svg>