<?xml version="1.0" encoding="UTF-8"?>
<svg xmlns="http://www.w3.org/2000/svg" version="1.1" viewBox="0 0 200 200">
  <defs>
    <style>
      .cls-1 {
        fill: #105327;
      }
    </style>
  </defs>
  <!-- Generator: Adobe Illustrator 28.6.0, SVG Export Plug-In . SVG Version: 1.2.0 Build 709)  -->
  <g>
    <g id="Laag_1">
      <path class="cls-1" d="M178.61,58.95l-19.11-32.68L95.99,5.93l-61.65,26.51-18.92,30.77-9.44,37.67,9.96,50.19,15.02,23.45,52.08,19.56,70.28-19.83,27.74-30.83,12.95-45.62-15.41-38.84ZM151.11,153.21l-34.88,1.13-1.34-21.64-5.12-23.22-5.73-1.5-5.6-1.07-4,1.87-4.2,1.33-2.99,10.79-2.36,34.45-5.41.18-36.39-2.32-2.71-27.49,1.36-43.75,12.03-10.97,1.29-31.93,20.26-4.53,2.16,14.85,19.05-17.37,15.82,7.08,47.29,42.48-8.52,71.63Z"/>
    </g>
  </g>
</svg>