<?xml version="1.0" encoding="UTF-8"?>
<svg xmlns="http://www.w3.org/2000/svg" version="1.1" viewBox="0 0 100 100">
  <defs>
    <style>
      .cls-1 {
        fill: #74804f;
      }
    </style>
  </defs>
  <!-- Generator: Adobe Illustrator 28.6.0, SVG Export Plug-In . SVG Version: 1.2.0 Build 709)  -->
  <g>
    <g id="Laag_1">
      <g>
        <polygon class="cls-1" points="60.41 37.32 50.75 47.19 40.88 54.75 36.89 63.56 34.37 72.17 37.52 70.49 42.35 61.47 47.81 52.44 57.26 44.88 62.51 41.94 63.98 37.95 62.09 27.87 60.41 37.32"/>
        <path class="cls-1" d="M89.21,18.36l-17.38-10.16L51.17,0l-24.26,6.89-16.39,14.75L-.03,59.02l10.4,27.7,12.47,7.99,26.69,5.3,20.03-5.02,16.36-10.06,14.1-32.79-10.82-33.77ZM72.94,52.67l-5.13,15.67-10.25,9.97-14.81,1.99h-11.39l-3.42-.05-2.23-1.87-1.19-3.21-1.99-12.53,1-7.69,10.11-14.81,12.25-5.41,13.39-9.12,2.85-10.54,7.12,4.27,3.7,15.38v17.95Z"/>
      </g>
    </g>
  </g>
</svg>