<?xml version="1.0" encoding="UTF-8"?>
<svg xmlns="http://www.w3.org/2000/svg" version="1.1" viewBox="0 0 100 100">
  <defs>
    <style>
      .cls-1 {
        fill: #74804f;
      }
    </style>
  </defs>
  <!-- Generator: Adobe Illustrator 28.6.0, SVG Export Plug-In . SVG Version: 1.2.0 Build 709)  -->
  <g>
    <g id="Laag_1">
      <g>
        <polygon class="cls-1" points="60.41 37.32 50.75 47.19 40.88 54.75 36.89 63.56 34.37 72.17 37.52 70.49 42.35 61.47 47.81 52.44 57.26 44.88 62.51 41.94 63.98 37.95 62.09 27.87 60.41 37.32"/>
        <path class="cls-1" d="M89.21,18.36l-17.38-10.16L51.17,0l-24.26,6.89-16.39,14.75L-.03,59.02l10.4,27.7,12.47,7.99,26.69,5.3,20.03-5.02,16.36-10.06,14.1-32.79-10.82-33.77ZM72.94,52.67l-5.13,15.67-10.25,9.97-14.81,1.99h-11.39l-3.42-.05-2.23-1.87-1.19-3.21-1.99-12.53,1-7.69,10.11-14.81,12.25-5.41,13.39-9.12,2.85-10.54,7.12,4.27,3.7,15.38v17.95Z"/>
      </g>
      <path class="cls-1" d="M-28.22,148.18l-10.16-17.37-33.75-10.81-32.77,14.09-10.06,16.35-5.02,20.02,5.3,26.68,7.98,12.46,27.68,10.4,37.36-10.54,14.75-16.38,6.88-24.25-8.19-20.64ZM-57.16,186.86l-25.31,2.43-22.78-2.13,2.13-34.93,8.51-1.52,35.64,1.52,1.82,18.53v16.1ZM-37.41,184.31l-17.73-6.4-.91-16.26,17-9.69,4.2,24.67-2.56,7.68Z"/>
      <path class="cls-1" d="M-28.22,28.18l-10.16-17.37L-72.13,0l-32.77,14.09-10.06,16.35-5.02,20.02,5.3,26.68,7.98,12.46,27.68,10.4,37.36-10.54,14.75-16.38,6.88-24.25-8.19-20.64ZM-42.84,78.28l-18.54.6-.71-11.5-2.72-12.34-3.04-.8-2.98-.57-2.13.99-2.23.71-1.59,5.74-1.26,18.31-2.87.09-19.34-1.23-1.44-14.61.72-23.25,6.39-5.83.69-16.97,10.77-2.41,1.15,7.89,10.13-9.23,8.41,3.76,25.13,22.58-4.53,38.07Z"/>
      <g>
        <path class="cls-1" d="M94.68,142.86l-7.98-12.46-27.68-10.4-37.36,10.54-14.75,16.38L.03,171.17l8.19,20.64,10.16,17.37,33.75,10.81,32.77-14.09,10.06-16.35,5.02-20.02-5.3-26.68ZM51.76,206.87l-16.8-47.31v-15.35l7.72-7.28,14.76-1.57,8.63,3.04,3.86,14.22-18.16,54.26Z"/>
        <polygon class="cls-1" points="50.4 141.64 45.15 145.62 40.53 153.41 44.67 162.16 52.31 163.6 59.47 160.88 62.81 151.34 58.2 143.7 50.4 141.64"/>
      </g>
    </g>
  </g>
</svg>